<svg width="201" height="45" viewBox="0 0 201 45" fill="none" xmlns="http://www.w3.org/2000/svg">
<path d="M196.78 18.0423L151.021 34.2427L154.788 44.9076L200.547 28.7072L196.78 18.0423Z" fill="#E30613"/>
<path fill-rule="evenodd" clip-rule="evenodd" d="M140.546 11.2982H135.263C134.749 10.6669 134.329 10.2039 133.983 9.89996C133.633 9.60535 133.184 9.31542 132.619 9.02549C131.405 8.4316 130.2 8.14167 128.995 8.14167C127.528 8.14167 126.169 8.50175 124.908 9.23592C123.642 9.96075 122.642 10.9521 121.904 12.2007C121.157 13.4446 120.788 14.7867 120.788 16.2083C120.788 17.6532 121.171 19 121.942 20.2626C122.703 21.5299 123.735 22.5446 125.029 23.2975C126.323 24.0598 127.701 24.4385 129.168 24.4385C131.153 24.4385 132.918 23.7184 134.488 22.2968C135.057 21.8058 135.627 21.0903 136.183 20.127H126.22V15.9885H141.746V16.4888C141.746 18.7054 141.186 20.7489 140.06 22.6241C138.92 24.4993 137.388 25.9817 135.454 27.076C133.516 28.1655 131.4 28.7127 129.093 28.7127C126.79 28.7127 124.66 28.1562 122.708 27.0526C120.76 25.9583 119.214 24.4432 118.065 22.5493C116.925 20.6461 116.351 18.5791 116.351 16.3532C116.351 14.1039 116.911 12.0183 118.06 10.101C119.2 8.17441 120.741 6.64994 122.694 5.53698C124.646 4.41935 126.757 3.85352 129.037 3.85352C130.13 3.85352 131.246 4.00316 132.358 4.30712C133.474 4.61107 134.525 5.05064 135.52 5.62115C136.515 6.19166 137.416 6.87907 138.229 7.69742C139.06 8.57657 139.836 9.77837 140.546 11.2982Z" fill="white"/>
<path fill-rule="evenodd" clip-rule="evenodd" d="M157.991 19.374C157.991 18.3499 157.776 17.438 157.337 16.6383C156.917 15.834 156.314 15.2027 155.539 14.7585C154.764 14.3142 153.881 14.0851 152.905 14.0851C151.905 14.0851 151.004 14.3142 150.205 14.7725C149.402 15.2308 148.776 15.8621 148.327 16.6758C147.874 17.4847 147.655 18.3919 147.655 19.4114C147.655 20.3747 147.874 21.2585 148.327 22.0488C148.78 22.8344 149.406 23.4564 150.2 23.9006C150.999 24.3449 151.886 24.5646 152.872 24.5646C153.839 24.5646 154.722 24.3449 155.497 23.8913C156.272 23.4377 156.884 22.8157 157.323 22.0301C157.767 21.2398 157.991 20.3607 157.991 19.374ZM161.985 10.5218V28.1327H158.122V25.7618C157.632 26.3229 157.235 26.7391 156.908 27.0057C156.59 27.2722 156.146 27.5481 155.576 27.8287C154.465 28.4226 153.26 28.7172 151.952 28.7172C150.34 28.7172 148.874 28.301 147.58 27.492C146.277 26.6783 145.263 25.5513 144.516 24.1157C143.783 22.6707 143.414 21.0621 143.414 19.2758C143.414 17.5502 143.806 15.9696 144.577 14.5434C145.347 13.1218 146.398 11.9948 147.739 11.1811C149.079 10.3581 150.551 9.94189 152.157 9.94189C153.451 9.94189 154.586 10.2084 155.553 10.7182C156.072 10.98 156.501 11.2653 156.847 11.5786C157.202 11.8919 157.632 12.3642 158.127 12.9955V10.5218H161.985Z" fill="white"/>
<path fill-rule="evenodd" clip-rule="evenodd" d="M176.32 15.3524H172.191C172.004 14.506 171.448 14.0851 170.523 14.0851C170.028 14.0851 169.626 14.2254 169.332 14.4919C169.038 14.7585 168.888 15.1045 168.888 15.5441C168.888 15.9462 169.052 16.2689 169.36 16.5214C169.664 16.7646 170.21 16.9937 170.995 17.2088L171.2 17.2743H171.266C173.232 17.8168 174.648 18.4995 175.502 19.3225C176.366 20.1502 176.787 21.2398 176.787 22.6053C176.787 23.7182 176.507 24.7377 175.937 25.6823C175.367 26.6222 174.582 27.3657 173.597 27.9035C172.602 28.446 171.518 28.7172 170.346 28.7172C169.51 28.7172 168.711 28.5629 167.926 28.2542C167.156 27.9596 166.469 27.5294 165.866 26.9823C165.362 26.4679 164.932 25.846 164.577 25.1071C164.306 24.5085 164.119 23.6715 164.035 22.5959H168.342C168.674 23.9146 169.426 24.5646 170.57 24.5646C171.163 24.5646 171.63 24.4103 171.999 24.111C172.359 23.7977 172.546 23.4003 172.546 22.8952C172.546 22.3995 172.354 22.002 171.967 21.6794C171.574 21.3614 170.892 21.0341 169.897 20.6927C169.874 20.6927 169.837 20.6833 169.799 20.6787C169.762 20.6693 169.739 20.6646 169.734 20.6646L169.556 20.5992L168.814 20.356C167.482 19.9445 166.455 19.3038 165.726 18.4481C165.002 17.5876 164.638 16.5775 164.638 15.4038C164.638 14.4124 164.9 13.5006 165.413 12.6541C165.941 11.8077 166.656 11.1484 167.553 10.6667C168.463 10.1851 169.449 9.94189 170.505 9.94189C171.569 9.94189 172.522 10.171 173.382 10.6246C174.237 11.0782 174.914 11.7189 175.432 12.5326C175.965 13.3603 176.254 14.3002 176.32 15.3524Z" fill="white"/>
<path fill-rule="evenodd" clip-rule="evenodd" d="M76.485 18.1256H80.5206L78.5215 12.7478L76.485 18.1256ZM75.5976 19.3461H74.7195L77.8116 11.2281L77.9096 10.3442H79.1334L79.1988 11.0924L82.2862 19.3461H75.5976ZM83.2951 21.9601L85.8781 28.1001H89.3999L79.9041 5.49493H77.2604L67.8673 28.1001H71.3985L74.0375 21.9601H83.2951ZM85.056 29.3253L82.4777 23.1853H74.8502L72.2019 29.3253H66.9612H66.041L76.4477 4.27441H80.7168L91.2309 29.3253H85.056Z" fill="white"/>
<path fill-rule="evenodd" clip-rule="evenodd" d="M96.948 5.80331H93.968V8.44074H96.948V5.80331ZM93.3515 9.67061H92.7443V4.57812H98.1671V9.67061H93.3515ZM96.948 11.7048H93.968V28.0999H96.948V11.7048ZM93.3515 29.325H92.7443V10.4843H98.1671V29.325H93.3515Z" fill="white"/>
<path fill-rule="evenodd" clip-rule="evenodd" d="M106.192 28.1001V19.2105C106.201 17.8825 106.28 16.9519 106.598 16.2458C106.976 15.5303 107.509 14.9645 108.153 14.6371C108.677 14.3332 109.298 14.1414 109.989 14.0573V11.1393C109.316 11.1673 108.798 11.3123 108.406 11.5227C107.962 11.7846 107.453 12.2709 106.93 13.0331L105.813 14.6558V11.7004H103.193V28.0955H106.192V28.1001ZM102.586 29.3253H101.979V10.4846H107.032V11.0317C107.285 10.8119 107.537 10.6202 107.803 10.4612C108.485 10.0824 109.312 9.91406 110.251 9.91406H111.199V15.2123L110.615 15.2404C109.84 15.2684 109.223 15.4321 108.728 15.7127C108.308 15.9278 107.967 16.2738 107.691 16.7882C107.527 17.1109 107.401 17.9666 107.401 19.2105V29.3253H102.586Z" fill="white"/>
<path d="M0.5 33.824V0.5H25.0542V33.824H0.5Z" fill="#00529E" stroke="white"/>
<path d="M27.6096 33.824V0.5H52.1685V33.824H27.6096Z" fill="#007D44" stroke="white"/>
<path d="M29.0436 32.1359V2.18359H50.7252V32.1359H29.0436Z" fill="#007D44" stroke="white"/>
<path d="M16.7786 10.4138L16.7724 10.4084C15.9616 9.70516 14.9743 9.19016 13.8032 8.86144L16.7786 10.4138ZM16.7786 10.4138L16.785 10.4189M16.7786 10.4138L16.785 10.4189M16.785 10.4189C17.3748 10.8974 17.9 11.5121 18.3616 12.2541C18.8234 12.9966 19.1783 13.7872 19.4271 14.641L19.4273 14.6417M16.785 10.4189L19.4273 14.6417M19.4273 14.6417C19.6754 15.4888 19.7948 16.3393 19.7948 17.2041C19.7948 18.4876 19.5257 19.7318 18.9794 20.9457C18.4329 22.16 17.6966 23.1493 16.7786 23.9196L16.7785 23.9195M19.4273 14.6417L16.7785 23.9195M16.7785 23.9195L16.7701 23.9269M16.7785 23.9195L16.7701 23.9269M16.7701 23.9269C16.1962 24.4308 15.5864 24.8301 14.9418 25.1055L14.9418 25.1054M16.7701 23.9269L14.9418 25.1054M14.9418 25.1054L14.9355 25.1082M14.9418 25.1054L14.9355 25.1082M14.9355 25.1082C14.2863 25.3961 13.527 25.6142 12.6489 25.7489C11.7697 25.8797 10.6889 25.9491 9.40707 25.9491H5.94153V8.36084M14.9355 25.1082L5.94153 8.36084M5.94153 8.36084H9.32767C11.1401 8.36084 12.6234 8.53163 13.8031 8.86143L5.94153 8.36084ZM12.6478 23.3207L12.6478 23.3207L12.6519 23.3197C13.4884 23.1128 14.2527 22.7574 14.9279 22.2356C15.6909 21.6596 16.2969 20.9246 16.7233 20.0405C17.1533 19.1541 17.3664 18.2238 17.3664 17.2368C17.3664 16.1541 17.1356 15.1268 16.6496 14.1731C16.1711 13.2157 15.5189 12.4561 14.691 11.8994C14.0289 11.4426 13.2707 11.1291 12.4284 10.9534L12.4273 10.9532C11.5851 10.7796 10.4815 10.6997 9.12683 10.6997H8.88394H8.38394V11.1997V23.1149H8.87926V23.6149H8.88394H9.29964H9.38394V23.6148C10.7342 23.611 11.8249 23.5168 12.6478 23.3207Z" fill="white" stroke="white"/>
<path d="M43.1706 15.2927L43.1706 15.2927L43.1749 15.2868C43.542 14.7836 43.7287 14.2078 43.7287 13.5706C43.7287 12.9204 43.5273 12.3466 43.128 11.8498L43.1266 11.8481C42.7301 11.359 42.2003 11.0354 41.5557 10.8619L41.5454 10.8591L41.5349 10.8567C41.043 10.7467 40.37 10.695 39.5481 10.695H38.2542H37.7542V11.195V16.0677V16.5677H38.2542H38.2589H39.5527C40.4742 16.5677 41.2175 16.5002 41.6953 16.3366C42.3043 16.1414 42.7958 15.7911 43.1706 15.2927ZM37.7589 19.3972V25.9491H35.3212V8.36084H39.1837C40.392 8.36084 41.2627 8.39824 41.8286 8.4607L41.8286 8.46074L41.8351 8.46137C42.559 8.53177 43.2463 8.79237 43.9243 9.25203L43.9262 9.25328C44.6221 9.72059 45.1674 10.3298 45.5584 11.0914L45.5583 11.0914L45.5604 11.0953C45.9615 11.86 46.1618 12.6734 46.1618 13.5519C46.1618 14.4112 45.9855 15.2207 45.6178 15.987L45.6163 15.99C45.2503 16.766 44.761 17.3847 44.1411 17.866L44.1411 17.8659L44.1364 17.8697C43.8183 18.1228 43.4271 18.3459 42.9433 18.5307C42.2918 18.763 40.9797 18.8972 38.9222 18.8972H38.2589H37.7589V19.3972Z" fill="white" stroke="white"/>
<path d="M155.558 34.5299L157.477 33.8519C159.556 33.1177 160.63 33.2767 161.247 33.4684C162.256 33.7724 163.232 34.6422 163.634 35.7832C164.096 37.0879 163.75 38.6264 162.723 39.6411C162.078 40.2864 161.027 40.7728 160.079 41.1048L158.127 41.7969L155.558 34.5299ZM159.243 39.9825L159.575 39.8656C160.42 39.5663 160.952 39.3231 161.504 38.7854C162.2 38.0979 162.34 37.1112 162.064 36.335C161.817 35.6289 161.223 35.0864 160.532 34.8666C159.701 34.586 158.841 34.7778 157.86 35.1285L157.561 35.2361L159.243 39.9825Z" fill="white"/>
<path d="M164.166 31.481L165.731 30.9292L168.295 38.1915L166.73 38.7433L164.166 31.481Z" fill="white"/>
<path d="M167.847 30.1809L172.391 28.5723L172.835 29.8302L169.855 30.887L170.481 32.664L173.335 31.6539L173.779 32.9119L170.925 33.9219L171.532 35.6381L174.512 34.5813L174.956 35.8392L170.411 37.4479L167.847 30.1809Z" fill="white"/>
<path d="M177.207 32.6967C177.543 33.3934 178.188 33.4402 178.669 33.2719C179.286 33.0521 179.706 32.4956 179.51 31.9485C179.248 31.2003 178.636 31.2611 177.464 31.2938C176.735 31.3078 175.255 31.4481 174.717 29.9143C174.306 28.7546 175.035 27.4733 176.464 26.9636C177.445 26.6175 179.094 26.697 179.697 28.1467L178.099 28.7125C177.8 28.0905 177.286 28.0859 176.861 28.2355C176.371 28.4085 176.1 28.8481 176.254 29.2783C176.478 29.9049 177.072 29.8488 178.015 29.7927C178.781 29.7413 180.463 29.6664 181.023 31.247C181.579 32.8183 180.425 34.0668 179.099 34.5345C178.015 34.9179 176.217 34.8478 175.558 33.2812L177.207 32.6967Z" fill="white"/>
<path d="M180.92 25.5515L185.465 23.9429L185.909 25.2008L182.929 26.2576L183.555 28.0346L186.409 27.0245L186.852 28.2825L183.998 29.2925L184.606 31.0087L187.586 29.9519L188.029 31.2098L183.485 32.8185L180.92 25.5515Z" fill="white"/>
<path d="M187.502 23.2225L189.066 22.666L191.187 28.6704L193.77 27.7585L194.214 29.0164L190.066 30.4848L187.502 23.2225Z" fill="white"/>
</svg>
